# Blender v3.4.1 OBJ File: 'box.blend'
# www.blender.org
o box-01
v 1.800000 0.000000 -2.000000
v 2.000000 0.000000 -1.800000
v 1.851764 0.000000 -1.993185
v 1.900000 0.000000 -1.973205
v 1.941421 0.000000 -1.941421
v 1.973205 0.000000 -1.900000
v 1.993185 0.000000 -1.851764
v -2.000000 0.000000 -1.800000
v -1.800000 0.000000 -2.000000
v -1.993185 0.000000 -1.851764
v -1.973205 0.000000 -1.900000
v -1.941421 0.000000 -1.941421
v -1.900000 0.000000 -1.973205
v -1.851764 0.000000 -1.993185
v 2.000000 0.000000 1.800000
v 1.800000 0.000000 2.000000
v 1.993185 0.000000 1.851764
v 1.973205 0.000000 1.900000
v 1.941421 0.000000 1.941421
v 1.900000 0.000000 1.973205
v 1.851764 0.000000 1.993185
v -1.800000 0.000000 2.000000
v -2.000000 0.000000 1.800000
v -1.851764 0.000000 1.993185
v -1.900000 0.000000 1.973205
v -1.941421 0.000000 1.941421
v -1.973205 0.000000 1.900000
v -1.993185 0.000000 1.851764
v 1.800000 0.300000 2.000000
v 2.000000 0.300000 1.800000
v 1.851764 0.300000 1.993185
v 1.900000 0.300000 1.973205
v 1.941421 0.300000 1.941421
v 1.973205 0.300000 1.900000
v 1.993185 0.300000 1.851764
v 2.000000 0.300000 -1.800000
v 1.800000 0.300000 -2.000000
v 1.993185 0.300000 -1.851764
v 1.973205 0.300000 -1.900000
v 1.941421 0.300000 -1.941421
v 1.900000 0.300000 -1.973205
v 1.851764 0.300000 -1.993185
v -1.800000 0.300000 -2.000000
v -2.000000 0.300000 -1.800000
v -1.851764 0.300000 -1.993185
v -1.900000 0.300000 -1.973205
v -1.941421 0.300000 -1.941421
v -1.973205 0.300000 -1.900000
v -1.993185 0.300000 -1.851764
v -2.000000 0.300000 1.800000
v -1.800000 0.300000 2.000000
v -1.993185 0.300000 1.851764
v -1.973205 0.300000 1.900000
v -1.941421 0.300000 1.941421
v -1.900000 0.300000 1.973205
v -1.851764 0.300000 1.993185
v 1.813458 -0.194720 -2.205336
v -1.813458 -0.194720 -2.205336
v -1.813109 0.300000 -2.200000
v 1.813109 0.300000 -2.200000
v -2.205336 -0.194720 -1.813458
v -2.205336 -0.194720 1.813458
v -2.200000 0.300000 1.813109
v -2.200000 0.300000 -1.813109
v -1.813458 -0.194720 2.205336
v 1.813458 -0.194720 2.205336
v 1.813109 0.300000 2.200000
v -1.813109 0.300000 2.200000
v 1.906466 -0.190531 -2.197338
v 2.005677 -0.190531 -2.156244
v 2.090872 -0.190531 -2.090872
v 2.156244 -0.190531 -2.005677
v 2.197338 -0.190531 -1.906466
v 2.205336 -0.194720 -1.813458
v 2.205336 -0.194720 1.813458
v 2.197338 -0.190531 1.906466
v 2.156244 -0.190531 2.005677
v 2.090872 -0.190531 2.090872
v 2.005677 -0.190531 2.156244
v 1.906466 -0.190531 2.197338
v -1.906466 -0.190531 2.197338
v -2.005677 -0.190531 2.156244
v -2.090872 -0.190531 2.090872
v -2.156244 -0.190531 2.005677
v -2.197338 -0.190531 1.906466
v -2.197338 -0.190531 -1.906466
v -2.156244 -0.190531 -2.005677
v -2.090872 -0.190531 -2.090872
v -2.005677 -0.190531 -2.156244
v -1.906466 -0.190531 -2.197338
v 2.200000 0.300000 1.813109
v 2.188037 0.300000 1.903974
v 2.147905 0.300000 2.000863
v 2.084063 0.300000 2.084063
v 2.000863 0.300000 2.147905
v 1.903974 0.300000 2.188037
v -2.188037 0.300000 1.903974
v -2.147905 0.300000 2.000863
v -2.084063 0.300000 2.084063
v -2.000863 0.300000 2.147905
v -1.903974 0.300000 2.188037
v -2.188037 0.300000 -1.903974
v -2.147905 0.300000 -2.000863
v -2.084063 0.300000 -2.084063
v -2.000863 0.300000 -2.147905
v -1.903974 0.300000 -2.188037
v 2.200000 0.300000 -1.813109
v 2.188037 0.300000 -1.903974
v 2.147905 0.300000 -2.000863
v 2.084063 0.300000 -2.084063
v 2.000863 0.300000 -2.147905
v 1.903974 0.300000 -2.188037
vt 0.091899 0.530365
vt 0.908101 0.462348
vt 0.091899 0.462348
vt 0.091899 0.530365
vt 0.908101 0.462348
vt 0.091899 0.462348
vt 0.908101 0.530365
vt 0.091899 0.462348
vt 0.908101 0.462348
vt 0.091899 0.953446
vt 0.046554 0.908101
vt 0.091899 0.046554
vt 0.919837 0.462348
vt 0.908101 0.530365
vt 0.908101 0.462348
vt 0.930773 0.462348
vt 0.919837 0.530365
vt 0.940165 0.462348
vt 0.930773 0.530365
vt 0.069227 0.462348
vt 0.059835 0.530365
vt 0.059835 0.462348
vt 0.080163 0.462348
vt 0.069227 0.530365
vt 0.080163 0.530365
vt 0.919837 0.530365
vt 0.908101 0.530365
vt 0.930773 0.530365
vt 0.919837 0.462348
vt 0.940165 0.530365
vt 0.930773 0.462348
vt 0.930773 0.530365
vt 0.940165 0.462348
vt 0.919837 0.530365
vt 0.930773 0.462348
vt 0.919837 0.462348
vt 0.080163 0.462348
vt 0.069227 0.462348
vt 0.080163 0.530365
vt 0.059835 0.462348
vt 0.069227 0.530365
vt 0.930773 0.462348
vt 0.940165 0.530365
vt 0.940165 0.462348
vt 0.919837 0.462348
vt 0.930773 0.530365
vt 0.919837 0.530365
vt 0.080163 0.530365
vt 0.091899 0.462348
vt 0.091899 0.530365
vt 0.069227 0.530365
vt 0.080163 0.462348
vt 0.059835 0.530365
vt 0.069227 0.462348
vt 0.069227 0.530365
vt 0.059835 0.462348
vt 0.080163 0.530365
vt 0.069227 0.462348
vt 0.080163 0.462348
vt 0.911152 0.418201
vt 0.088927 0.530365
vt 0.088848 0.418201
vt 0.911152 0.418201
vt 0.088927 0.530365
vt 0.088848 0.418201
vt 0.088848 0.418201
vt 0.911073 0.530365
vt 0.911152 0.418201
vt 0.911073 0.530365
vt 0.932239 0.419151
vt 0.911152 0.418201
vt 0.931674 0.530365
vt 0.954733 0.419151
vt 0.953641 0.530365
vt 0.974048 0.419151
vt 0.025952 0.419151
vt 0.046359 0.530365
vt 0.045267 0.419151
vt 0.067761 0.419151
vt 0.088927 0.530365
vt 0.911073 0.530365
vt 0.932239 0.419151
vt 0.931674 0.530365
vt 0.953641 0.530365
vt 0.974048 0.419151
vt 0.972505 0.530365
vt 0.953641 0.530365
vt 0.954733 0.419151
vt 0.931674 0.530365
vt 0.932239 0.419151
vt 0.067761 0.419151
vt 0.068326 0.530365
vt 0.045267 0.419151
vt 0.046359 0.530365
vt 0.025952 0.419151
vt 0.974048 0.419151
vt 0.953641 0.530365
vt 0.954733 0.419151
vt 0.932239 0.419151
vt 0.911073 0.530365
vt 0.088927 0.530365
vt 0.067761 0.419151
vt 0.068326 0.530365
vt 0.046359 0.530365
vt 0.025952 0.419151
vt 0.027495 0.530365
vt 0.046359 0.530365
vt 0.045267 0.419151
vt 0.068326 0.530365
vt 0.067761 0.419151
vt 0.088848 0.418201
vt 0.908101 0.953446
vt 0.088927 0.998790
vt 0.091899 0.953446
vt 0.947371 0.069227
vt 0.996078 0.068326
vt 0.951901 0.080163
vt 0.080163 0.048099
vt 0.046359 0.013021
vt 0.068326 0.003922
vt 0.048099 0.080163
vt 0.001210 0.088927
vt 0.003922 0.068326
vt 0.080163 0.951901
vt 0.068326 0.996078
vt 0.052629 0.930773
vt 0.003922 0.931674
vt 0.048099 0.919837
vt 0.919837 0.951901
vt 0.953641 0.986979
vt 0.931674 0.996078
vt 0.951901 0.919837
vt 0.998790 0.911073
vt 0.996078 0.931674
vt 0.940165 0.059835
vt 0.986979 0.046359
vt 0.088927 0.001210
vt 0.091899 0.046554
vt 0.052629 0.069227
vt 0.013021 0.046359
vt 0.059835 0.940165
vt 0.013021 0.953641
vt 0.911073 0.998790
vt 0.953641 0.013021
vt 0.972505 0.027495
vt 0.947371 0.930773
vt 0.986979 0.953641
vt 0.046554 0.908101
vt 0.046554 0.091899
vt 0.059835 0.059835
vt 0.027495 0.027495
vt 0.046359 0.986979
vt 0.027495 0.972505
vt 0.919837 0.048099
vt 0.930773 0.052629
vt 0.940165 0.940165
vt 0.972505 0.972505
vt 0.998790 0.088927
vt 0.953446 0.091899
vt 0.069227 0.052629
vt 0.911073 0.001210
vt 0.908101 0.046554
vt 0.069227 0.947371
vt 0.931674 0.003922
vt 0.953446 0.908101
vt 0.001210 0.911073
vt 0.930773 0.947371
vt 0.908101 0.530365
vt 0.091899 0.530365
vt 0.080163 0.048099
vt 0.048099 0.080163
vt 0.908101 0.046554
vt 0.953446 0.091899
vt 0.919837 0.048099
vt 0.930773 0.052629
vt 0.940165 0.059835
vt 0.947371 0.069227
vt 0.951901 0.080163
vt 0.953446 0.908101
vt 0.908101 0.953446
vt 0.951901 0.919837
vt 0.919837 0.951901
vt 0.947371 0.930773
vt 0.940165 0.940165
vt 0.930773 0.947371
vt 0.080163 0.951901
vt 0.052629 0.930773
vt 0.069227 0.947371
vt 0.059835 0.940165
vt 0.048099 0.919837
vt 0.046554 0.091899
vt 0.052629 0.069227
vt 0.059835 0.059835
vt 0.069227 0.052629
vt 0.940165 0.530365
vt 0.059835 0.530365
vt 0.972505 0.530365
vt 0.027495 0.530365
vt 0.068326 0.530365
vt 0.954733 0.419151
vt 0.027495 0.530365
vt 0.972505 0.530365
vt 0.931674 0.530365
vt 0.045267 0.419151
vn 0.0000 0.0000 1.0000
vn 1.0000 0.0000 0.0000
vn 0.0000 0.0000 -1.0000
vn 0.0000 1.0000 0.0000
vn -0.9914 0.0000 -0.1305
vn -0.9239 0.0000 -0.3827
vn -0.7934 0.0000 -0.6088
vn -0.6088 0.0000 -0.7934
vn -0.3827 0.0000 -0.9239
vn -0.1305 0.0000 -0.9914
vn 0.9914 0.0000 -0.1305
vn 0.9239 0.0000 -0.3827
vn 0.7934 0.0000 -0.6088
vn 0.6088 0.0000 -0.7934
vn 0.3827 0.0000 -0.9239
vn 0.1305 0.0000 -0.9914
vn 0.9914 0.0000 0.1305
vn 0.9239 0.0000 0.3827
vn 0.7934 0.0000 0.6088
vn 0.6088 0.0000 0.7934
vn 0.3827 0.0000 0.9239
vn 0.1305 0.0000 0.9914
vn -0.9914 0.0000 0.1305
vn -0.9239 0.0000 0.3827
vn -0.7934 0.0000 0.6088
vn -0.6088 0.0000 0.7934
vn -0.3827 0.0000 0.9239
vn -0.1305 0.0000 0.9914
vn -1.0000 0.0000 0.0000
vn 0.0000 0.0108 -0.9999
vn -0.9999 0.0108 0.0000
vn 0.0000 0.0108 0.9999
vn 0.9963 0.0108 0.0852
vn 0.9237 0.0195 0.3826
vn 0.7932 0.0195 0.6086
vn 0.6086 0.0195 0.7932
vn 0.3826 0.0195 0.9237
vn 0.0852 0.0108 0.9963
vn -0.9913 0.0195 0.1305
vn -0.9237 0.0195 0.3826
vn -0.7932 0.0195 0.6086
vn -0.6086 0.0195 0.7932
vn -0.3826 0.0195 0.9237
vn -0.1305 0.0195 0.9913
vn -0.9963 0.0108 -0.0852
vn -0.9237 0.0195 -0.3826
vn -0.7932 0.0195 -0.6086
vn -0.6086 0.0195 -0.7932
vn -0.3826 0.0195 -0.9237
vn -0.0852 0.0108 -0.9963
vn 0.9913 0.0195 -0.1305
vn 0.9237 0.0195 -0.3826
vn 0.7932 0.0195 -0.6086
vn 0.6086 0.0195 -0.7932
vn 0.3826 0.0195 -0.9237
vn 0.1305 0.0195 -0.9913
vn 0.9999 0.0108 0.0000
vn 0.9913 0.0195 0.1305
vn 0.1305 0.0195 0.9913
vn -0.9963 0.0108 0.0852
vn -0.0852 0.0108 0.9963
vn -0.9913 0.0195 -0.1305
vn -0.1305 0.0195 -0.9913
vn 0.9963 0.0108 -0.0852
vn 0.0852 0.0108 -0.9963
s off
f 37/1/1 9/2/1 1/3/1
f 44/4/2 23/5/2 8/6/2
f 51/7/3 16/8/3 22/9/3
f 16/10/4 15/11/4 1/12/4
f 17/13/5 30/14/5 15/15/5
f 18/16/6 35/17/6 17/13/6
f 19/18/7 34/19/7 18/16/7
f 20/20/8 33/21/8 19/22/8
f 21/23/9 32/24/9 20/20/9
f 16/8/10 31/25/10 21/23/10
f 52/26/11 23/5/11 50/27/11
f 53/28/12 28/29/12 52/26/12
f 54/30/13 27/31/13 53/28/13
f 55/32/14 26/33/14 54/30/14
f 56/34/15 25/35/15 55/32/15
f 51/7/16 24/36/16 56/34/16
f 10/37/17 44/4/17 8/6/17
f 11/38/18 49/39/18 10/37/18
f 12/40/19 48/41/19 11/38/19
f 13/42/20 47/43/20 12/44/20
f 14/45/21 46/46/21 13/42/21
f 9/2/22 45/47/22 14/45/22
f 38/48/23 2/49/23 36/50/23
f 39/51/24 7/52/24 38/48/24
f 40/53/25 6/54/25 39/51/25
f 41/55/26 5/56/26 40/53/26
f 42/57/27 4/58/27 41/55/27
f 37/1/28 3/59/28 42/57/28
f 30/14/29 2/49/29 15/15/29
f 58/60/30 60/61/30 57/62/30
f 62/63/31 64/64/31 61/65/31
f 66/66/32 68/67/32 65/68/32
f 91/69/33 76/70/33 75/71/33
f 92/72/34 77/73/34 76/70/34
f 93/74/35 78/75/35 77/73/35
f 78/76/36 95/77/36 79/78/36
f 95/77/37 80/79/37 79/78/37
f 80/79/38 67/80/38 66/66/38
f 63/81/39 85/82/39 97/83/39
f 85/82/40 98/84/40 97/83/40
f 98/84/41 83/85/41 99/86/41
f 83/85/42 100/87/42 99/86/42
f 82/88/43 101/89/43 100/87/43
f 81/90/44 68/67/44 101/89/44
f 64/64/45 86/91/45 61/65/45
f 102/92/46 87/93/46 86/91/46
f 103/94/47 88/95/47 87/93/47
f 88/96/48 105/97/48 89/98/48
f 105/97/49 90/99/49 89/98/49
f 90/99/50 59/100/50 58/60/50
f 107/101/51 73/102/51 108/103/51
f 73/102/52 109/104/52 108/103/52
f 109/104/53 71/105/53 110/106/53
f 71/105/54 111/107/54 110/106/54
f 70/108/55 112/109/55 111/107/55
f 69/110/56 60/61/56 112/109/56
f 74/111/57 91/69/57 75/71/57
f 51/112/4 67/113/4 29/114/4
f 48/115/4 102/116/4 49/117/4
f 42/118/4 111/119/4 112/120/4
f 38/121/4 107/122/4 108/123/4
f 31/124/4 67/113/4 96/125/4
f 34/126/4 92/127/4 35/128/4
f 56/129/4 100/130/4 101/131/4
f 52/132/4 63/133/4 97/134/4
f 47/135/4 103/136/4 48/115/4
f 42/118/4 60/137/4 37/138/4
f 39/139/4 108/123/4 109/140/4
f 33/141/4 93/142/4 34/126/4
f 56/129/4 68/143/4 51/112/4
f 47/135/4 105/144/4 104/145/4
f 53/146/4 97/134/4 98/147/4
f 30/148/4 107/122/4 36/149/4
f 40/150/4 109/140/4 110/151/4
f 33/141/4 95/152/4 94/153/4
f 45/154/4 105/144/4 46/155/4
f 54/156/4 98/147/4 99/157/4
f 49/117/4 64/158/4 44/159/4
f 40/150/4 111/119/4 41/160/4
f 37/138/4 59/161/4 43/162/4
f 31/124/4 95/152/4 32/163/4
f 45/154/4 59/161/4 106/164/4
f 44/159/4 63/133/4 50/165/4
f 35/128/4 91/166/4 30/148/4
f 54/156/4 100/130/4 55/167/4
f 37/1/1 43/168/1 9/2/1
f 44/4/2 50/27/2 23/5/2
f 51/7/3 29/169/3 16/8/3
f 3/170/4 1/12/4 7/171/4
f 1/12/4 9/172/4 8/173/4
f 9/172/4 14/174/4 13/175/4
f 13/175/4 12/176/4 11/177/4
f 11/177/4 10/178/4 13/175/4
f 10/178/4 8/173/4 13/175/4
f 8/173/4 23/179/4 22/180/4
f 23/179/4 28/181/4 24/182/4
f 28/181/4 27/183/4 26/184/4
f 26/184/4 25/185/4 24/182/4
f 24/182/4 22/180/4 23/179/4
f 22/180/4 16/10/4 8/173/4
f 16/10/4 21/186/4 18/187/4
f 21/186/4 20/188/4 18/187/4
f 20/188/4 19/189/4 18/187/4
f 18/187/4 17/190/4 15/11/4
f 15/11/4 2/191/4 1/12/4
f 2/191/4 7/171/4 1/12/4
f 7/171/4 6/192/4 3/170/4
f 6/192/4 5/193/4 3/170/4
f 5/193/4 4/194/4 3/170/4
f 1/12/4 8/173/4 16/10/4
f 9/172/4 13/175/4 8/173/4
f 28/181/4 26/184/4 24/182/4
f 18/187/4 15/11/4 16/10/4
f 17/13/5 35/17/5 30/14/5
f 18/16/6 34/19/6 35/17/6
f 19/18/7 33/195/7 34/19/7
f 20/20/8 32/24/8 33/21/8
f 21/23/9 31/25/9 32/24/9
f 16/8/10 29/169/10 31/25/10
f 52/26/11 28/29/11 23/5/11
f 53/28/12 27/31/12 28/29/12
f 54/30/13 26/33/13 27/31/13
f 55/32/14 25/35/14 26/33/14
f 56/34/15 24/36/15 25/35/15
f 51/7/16 22/9/16 24/36/16
f 10/37/17 49/39/17 44/4/17
f 11/38/18 48/41/18 49/39/18
f 12/40/19 47/196/19 48/41/19
f 13/42/20 46/46/20 47/43/20
f 14/45/21 45/47/21 46/46/21
f 9/2/22 43/168/22 45/47/22
f 38/48/23 7/52/23 2/49/23
f 39/51/24 6/54/24 7/52/24
f 40/53/25 5/56/25 6/54/25
f 41/55/26 4/58/26 5/56/26
f 42/57/27 3/59/27 4/58/27
f 37/1/28 1/3/28 3/59/28
f 30/14/29 36/50/29 2/49/29
f 58/60/30 59/100/30 60/61/30
f 62/63/31 63/81/31 64/64/31
f 66/66/32 67/80/32 68/67/32
f 91/69/58 92/72/58 76/70/58
f 92/72/34 93/74/34 77/73/34
f 93/74/35 94/197/35 78/75/35
f 78/76/36 94/198/36 95/77/36
f 95/77/37 96/199/37 80/79/37
f 80/79/59 96/199/59 67/80/59
f 63/81/60 62/63/60 85/82/60
f 85/82/40 84/200/40 98/84/40
f 98/84/41 84/200/41 83/85/41
f 83/85/42 82/88/42 100/87/42
f 82/88/43 81/90/43 101/89/43
f 81/90/61 65/68/61 68/67/61
f 64/64/62 102/92/62 86/91/62
f 102/92/46 103/94/46 87/93/46
f 103/94/47 104/201/47 88/95/47
f 88/96/48 104/202/48 105/97/48
f 105/97/49 106/203/49 90/99/49
f 90/99/63 106/203/63 59/100/63
f 107/101/64 74/111/64 73/102/64
f 73/102/52 72/204/52 109/104/52
f 109/104/53 72/204/53 71/105/53
f 71/105/54 70/108/54 111/107/54
f 70/108/55 69/110/55 112/109/55
f 69/110/65 57/62/65 60/61/65
f 74/111/57 107/101/57 91/69/57
f 51/112/4 68/143/4 67/113/4
f 48/115/4 103/136/4 102/116/4
f 42/118/4 41/160/4 111/119/4
f 38/121/4 36/149/4 107/122/4
f 31/124/4 29/114/4 67/113/4
f 34/126/4 93/142/4 92/127/4
f 56/129/4 55/167/4 100/130/4
f 52/132/4 50/165/4 63/133/4
f 47/135/4 104/145/4 103/136/4
f 42/118/4 112/120/4 60/137/4
f 39/139/4 38/121/4 108/123/4
f 33/141/4 94/153/4 93/142/4
f 56/129/4 101/131/4 68/143/4
f 47/135/4 46/155/4 105/144/4
f 53/146/4 52/132/4 97/134/4
f 30/148/4 91/166/4 107/122/4
f 40/150/4 39/139/4 109/140/4
f 33/141/4 32/163/4 95/152/4
f 45/154/4 106/164/4 105/144/4
f 54/156/4 53/146/4 98/147/4
f 49/117/4 102/116/4 64/158/4
f 40/150/4 110/151/4 111/119/4
f 37/138/4 60/137/4 59/161/4
f 31/124/4 96/125/4 95/152/4
f 45/154/4 43/162/4 59/161/4
f 44/159/4 64/158/4 63/133/4
f 35/128/4 92/127/4 91/166/4
f 54/156/4 99/157/4 100/130/4
