# Blender v3.4.1 OBJ File: 'box.blend'
# www.blender.org
o box-02
v 2.706269 -0.193800 -2.316233
v 2.700000 0.300000 -2.315740
v 2.700000 0.300000 2.315740
v 2.706269 -0.193800 2.316233
v -2.706269 -0.193800 2.316233
v -2.700000 0.300000 2.315740
v -2.700000 0.300000 -2.315740
v -2.706269 -0.193800 -2.316233
v -2.300000 0.000000 2.500000
v -2.500000 0.000000 2.300000
v -2.361804 0.000000 2.490211
v -2.417557 0.000000 2.461804
v -2.461804 0.000000 2.417557
v -2.490211 0.000000 2.361804
v 2.500000 0.000000 2.300000
v 2.300000 0.000000 2.500000
v 2.490211 0.000000 2.361804
v 2.461804 0.000000 2.417557
v 2.417557 0.000000 2.461804
v 2.361804 0.000000 2.490211
v -2.500000 0.000000 -2.300000
v -2.300000 0.000000 -2.500000
v -2.490211 0.000000 -2.361804
v -2.461804 0.000000 -2.417557
v -2.417557 0.000000 -2.461804
v -2.361804 0.000000 -2.490211
v 2.300000 0.000000 -2.500000
v 2.500000 0.000000 -2.300000
v 2.361804 0.000000 -2.490211
v 2.417557 0.000000 -2.461804
v 2.461804 0.000000 -2.417557
v 2.490211 0.000000 -2.361804
v -2.500000 0.300000 2.300000
v -2.300000 0.300000 2.500000
v -2.490211 0.300000 2.361804
v -2.461804 0.300000 2.417557
v -2.417557 0.300000 2.461804
v -2.361804 0.300000 2.490211
v 2.300000 0.300000 2.500000
v 2.500000 0.300000 2.300000
v 2.361804 0.300000 2.490211
v 2.417557 0.300000 2.461804
v 2.461804 0.300000 2.417557
v 2.490211 0.300000 2.361804
v 2.500000 0.300000 -2.300000
v 2.300000 0.300000 -2.500000
v 2.490211 0.300000 -2.361804
v 2.461804 0.300000 -2.417557
v 2.417557 0.300000 -2.461804
v 2.361804 0.300000 -2.490211
v -2.300000 0.300000 -2.500000
v -2.500000 0.300000 -2.300000
v -2.361804 0.300000 -2.490211
v -2.417557 0.300000 -2.461804
v -2.461804 0.300000 -2.417557
v -2.490211 0.300000 -2.361804
v 2.316233 -0.193800 -2.706269
v 2.315740 0.300000 -2.700000
v -2.315740 0.300000 -2.700000
v -2.316233 -0.193800 -2.706269
v -2.427792 -0.189126 -2.693304
v -2.543075 -0.189126 -2.634564
v -2.634564 -0.189126 -2.543075
v -2.693304 -0.189126 -2.427792
v -2.693304 -0.189126 2.427792
v -2.634564 -0.189126 2.543075
v -2.543075 -0.189126 2.634564
v -2.427792 -0.189126 2.693304
v -2.316233 -0.193800 2.706269
v 2.316233 -0.193800 2.706269
v 2.427792 -0.189126 2.693304
v 2.543075 -0.189126 2.634564
v 2.634564 -0.189126 2.543075
v 2.693304 -0.189126 2.427792
v 2.693304 -0.189126 -2.427792
v 2.634564 -0.189126 -2.543075
v 2.543075 -0.189126 -2.634564
v 2.427792 -0.189126 -2.693304
v -2.424377 0.300000 2.682794
v -2.315740 0.300000 2.700000
v -2.536580 0.300000 2.625624
v -2.625624 0.300000 2.536580
v -2.682794 0.300000 2.424377
v -2.424377 0.300000 -2.682794
v -2.536580 0.300000 -2.625624
v -2.625624 0.300000 -2.536580
v -2.682794 0.300000 -2.424377
v 2.682794 0.300000 -2.424377
v 2.625624 0.300000 -2.536580
v 2.536580 0.300000 -2.625624
v 2.424377 0.300000 -2.682794
v 2.315740 0.300000 2.700000
v 2.424377 0.300000 2.682794
v 2.536580 0.300000 2.625624
v 2.625624 0.300000 2.536580
v 2.682794 0.300000 2.424377
vt 0.075061 0.524773
vt 0.924939 0.469346
vt 0.075061 0.469346
vt 0.924939 0.524773
vt 0.075061 0.469346
vt 0.924939 0.469346
vt 0.927939 0.433540
vt 0.072153 0.524773
vt 0.072061 0.433540
vt 0.075061 0.524773
vt 0.924939 0.469346
vt 0.075061 0.469346
vt 0.038109 0.075061
vt 0.045166 0.053341
vt 0.063642 0.039918
vt 0.936358 0.469346
vt 0.924939 0.524773
vt 0.924939 0.469346
vt 0.946659 0.469346
vt 0.936358 0.524773
vt 0.954834 0.469346
vt 0.946659 0.524773
vt 0.936358 0.469346
vt 0.946659 0.524773
vt 0.946659 0.469346
vt 0.936358 0.524773
vt 0.936358 0.524773
vt 0.924939 0.524773
vt 0.946659 0.524773
vt 0.936358 0.469346
vt 0.954834 0.524773
vt 0.946659 0.469346
vt 0.063642 0.524773
vt 0.053341 0.469346
vt 0.053341 0.524773
vt 0.063642 0.469346
vt 0.063642 0.524773
vt 0.075061 0.524773
vt 0.053341 0.524773
vt 0.063642 0.469346
vt 0.053341 0.524773
vt 0.045166 0.469346
vt 0.045166 0.524773
vt 0.063642 0.524773
vt 0.053341 0.469346
vt 0.063642 0.469346
vt 0.063642 0.524773
vt 0.075061 0.469346
vt 0.075061 0.524773
vt 0.053341 0.524773
vt 0.063642 0.469346
vt 0.045166 0.524773
vt 0.053341 0.469346
vt 0.936358 0.524773
vt 0.946659 0.469346
vt 0.946659 0.524773
vt 0.936358 0.469346
vt 0.072061 0.433540
vt 0.927847 0.524773
vt 0.927939 0.433540
vt 0.927939 0.433540
vt 0.072153 0.524773
vt 0.072061 0.433540
vt 0.927847 0.524773
vt 0.948550 0.434404
vt 0.927939 0.433540
vt 0.947919 0.524773
vt 0.969849 0.434404
vt 0.968649 0.524773
vt 0.986752 0.434404
vt 0.968649 0.524773
vt 0.948550 0.434404
vt 0.969849 0.434404
vt 0.927847 0.524773
vt 0.927847 0.524773
vt 0.948550 0.434404
vt 0.947919 0.524773
vt 0.968649 0.524773
vt 0.969849 0.434404
vt 0.985100 0.524773
vt 0.031351 0.524773
vt 0.051450 0.434404
vt 0.052081 0.524773
vt 0.072153 0.524773
vt 0.051450 0.434404
vt 0.052081 0.524773
vt 0.031351 0.524773
vt 0.013248 0.434404
vt 0.031351 0.524773
vt 0.014900 0.524773
vt 0.051450 0.434404
vt 0.052081 0.524773
vt 0.072153 0.524773
vt 0.051450 0.434404
vt 0.052081 0.524773
vt 0.031351 0.524773
vt 0.030151 0.434404
vt 0.014900 0.524773
vt 0.968649 0.524773
vt 0.948550 0.434404
vt 0.947919 0.524773
vt 0.072061 0.433540
vt 0.063642 0.039918
vt 0.072153 0.001158
vt 0.075061 0.038109
vt 0.985100 0.968649
vt 0.946659 0.954834
vt 0.954834 0.946659
vt 0.968649 0.014900
vt 0.954834 0.053341
vt 0.946659 0.045166
vt 0.927847 0.001158
vt 0.936358 0.039918
vt 0.924939 0.038109
vt 0.039918 0.936358
vt 0.001158 0.927847
vt 0.038109 0.924939
vt 0.014900 0.031351
vt 0.053341 0.045166
vt 0.045166 0.053341
vt 0.936358 0.960082
vt 0.927847 0.998842
vt 0.924939 0.961891
vt 0.001158 0.072153
vt 0.039918 0.063642
vt 0.038109 0.075061
vt 0.998842 0.072153
vt 0.961891 0.924939
vt 0.961891 0.075061
vt 0.031351 0.985100
vt 0.045166 0.946659
vt 0.053341 0.954834
vt 0.072153 0.998842
vt 0.063642 0.960082
vt 0.075061 0.961891
vt 0.995663 0.947919
vt 0.960082 0.936358
vt 0.985100 0.031351
vt 0.960082 0.063642
vt 0.031351 0.014900
vt 0.968649 0.985100
vt 0.947919 0.004337
vt 0.014900 0.968649
vt 0.004337 0.052081
vt 0.998842 0.927847
vt 0.052081 0.995663
vt 0.924939 0.524773
vt 0.075061 0.038109
vt 0.924939 0.038109
vt 0.961891 0.924939
vt 0.936358 0.039918
vt 0.946659 0.045166
vt 0.954834 0.053341
vt 0.960082 0.063642
vt 0.961891 0.075061
vt 0.960082 0.936358
vt 0.954834 0.946659
vt 0.946659 0.954834
vt 0.936358 0.960082
vt 0.924939 0.961891
vt 0.075061 0.961891
vt 0.063642 0.960082
vt 0.053341 0.954834
vt 0.045166 0.946659
vt 0.039918 0.936358
vt 0.038109 0.924939
vt 0.039918 0.063642
vt 0.053341 0.045166
vt 0.954834 0.524773
vt 0.954834 0.469346
vt 0.053341 0.469346
vt 0.045166 0.469346
vt 0.985100 0.524773
vt 0.947919 0.524773
vt 0.986752 0.434404
vt 0.030151 0.434404
vt 0.030151 0.434404
vt 0.030151 0.434404
vt 0.013248 0.434404
vt 0.969849 0.434404
vt 0.052081 0.004337
vt 0.004337 0.947919
vt 0.947919 0.995663
vt 0.995663 0.052081
vn 1.0000 0.0000 0.0000
vn -1.0000 0.0000 0.0000
vn -0.9999 0.0127 0.0000
vn 0.0000 0.0000 1.0000
vn 0.0000 1.0000 0.0000
vn 0.1564 0.0000 -0.9877
vn 0.4540 0.0000 -0.8910
vn 0.7071 0.0000 -0.7071
vn 0.8910 0.0000 -0.4540
vn 0.9877 0.0000 -0.1564
vn 0.1564 0.0000 0.9877
vn 0.4540 0.0000 0.8910
vn 0.7071 0.0000 0.7071
vn 0.8910 0.0000 0.4540
vn 0.9877 0.0000 0.1564
vn -0.9877 0.0000 0.1564
vn -0.8910 0.0000 0.4540
vn -0.7071 0.0000 0.7071
vn -0.4540 0.0000 0.8910
vn -0.1564 0.0000 0.9877
vn -0.1564 0.0000 -0.9877
vn -0.4540 0.0000 -0.8910
vn -0.7071 0.0000 -0.7071
vn -0.8910 0.0000 -0.4540
vn -0.9877 0.0000 -0.1564
vn 0.0000 0.0000 -1.0000
vn 0.9999 0.0127 0.0000
vn 0.0000 0.0127 -0.9999
vn -0.1149 0.0127 0.9933
vn -0.4539 0.0223 0.8908
vn -0.7069 0.0223 0.7069
vn -0.8908 0.0223 0.4539
vn -0.9933 0.0127 0.1149
vn -0.1564 0.0223 -0.9874
vn -0.4539 0.0223 -0.8908
vn -0.7069 0.0223 -0.7069
vn -0.8908 0.0223 -0.4539
vn -0.9874 0.0223 -0.1564
vn 0.9874 0.0223 -0.1564
vn 0.8908 0.0223 -0.4539
vn 0.7069 0.0223 -0.7069
vn 0.4539 0.0223 -0.8908
vn 0.1564 0.0223 -0.9874
vn 0.1564 0.0223 0.9874
vn 0.4539 0.0223 0.8908
vn 0.7069 0.0223 0.7069
vn 0.8908 0.0223 0.4539
vn 0.9874 0.0223 0.1564
vn 0.0000 0.0127 0.9999
vn -0.1564 0.0223 0.9874
vn -0.9874 0.0223 0.1564
vn -0.1149 0.0127 -0.9933
vn -0.9933 0.0127 -0.1149
vn 0.9933 0.0127 -0.1149
vn 0.1149 0.0127 -0.9933
vn 0.1149 0.0127 0.9933
vn 0.9933 0.0127 0.1149
s off
f 52/1/1 10/2/1 21/3/1
f 40/4/2 28/5/2 15/6/2
f 5/7/3 7/8/3 8/9/3
f 46/10/4 22/11/4 27/12/4
f 28/13/5 31/14/5 29/15/5
f 11/16/6 34/17/6 9/18/6
f 12/19/7 38/20/7 11/16/7
f 13/21/8 37/22/8 12/19/8
f 14/23/9 36/24/9 13/25/9
f 10/2/10 35/26/10 14/23/10
f 53/27/11 22/11/11 51/28/11
f 54/29/12 26/30/12 53/27/12
f 55/31/13 25/32/13 54/29/13
f 56/33/14 24/34/14 55/35/14
f 52/1/15 23/36/15 56/33/15
f 47/37/16 28/5/16 45/38/16
f 48/39/17 32/40/17 47/37/17
f 49/41/18 31/42/18 48/43/18
f 50/44/19 30/45/19 49/41/19
f 46/10/20 29/46/20 50/44/20
f 41/47/21 16/48/21 39/49/21
f 42/50/22 20/51/22 41/47/22
f 43/52/23 19/53/23 42/50/23
f 44/54/24 18/55/24 43/56/24
f 40/4/25 17/57/25 44/54/25
f 34/17/26 16/48/26 9/18/26
f 1/58/27 3/59/27 4/60/27
f 60/61/28 58/62/28 57/63/28
f 80/64/29 68/65/29 69/66/29
f 79/67/30 67/68/30 68/65/30
f 81/69/31 66/70/31 67/68/31
f 82/71/32 65/72/32 66/73/32
f 65/72/33 6/74/33 5/7/33
f 59/75/34 61/76/34 84/77/34
f 61/76/35 85/78/35 84/77/35
f 62/79/36 86/80/36 85/78/36
f 86/81/37 64/82/37 87/83/37
f 64/82/38 7/8/38 87/83/38
f 2/84/39 75/85/39 88/86/39
f 75/85/40 89/87/40 88/86/40
f 76/88/41 90/89/41 89/90/41
f 90/89/42 78/91/42 91/92/42
f 78/91/43 58/62/43 91/92/43
f 92/93/44 71/94/44 93/95/44
f 71/94/45 94/96/45 93/95/45
f 72/97/46 95/98/46 94/96/46
f 95/99/47 74/100/47 96/101/47
f 74/100/48 3/59/48 96/101/48
f 70/102/49 80/64/49 69/66/49
f 50/103/5 58/104/5 46/105/5
f 82/106/5 37/107/5 36/108/5
f 85/109/5 55/110/5 54/111/5
f 59/112/5 53/113/5 51/114/5
f 44/115/5 3/116/5 40/117/5
f 89/118/5 49/119/5 48/120/5
f 38/121/5 80/122/5 34/123/5
f 2/124/5 47/125/5 45/126/5
f 7/127/5 33/128/5 52/129/5
f 94/130/5 43/131/5 42/132/5
f 3/116/5 45/126/5 40/117/5
f 92/133/5 41/134/5 39/135/5
f 83/136/5 36/108/5 35/137/5
f 86/138/5 56/139/5 55/110/5
f 58/104/5 51/114/5 46/105/5
f 90/140/5 50/103/5 49/119/5
f 81/141/5 38/121/5 37/107/5
f 84/142/5 54/111/5 53/113/5
f 80/122/5 39/135/5 34/123/5
f 95/143/5 44/115/5 43/131/5
f 88/144/5 48/120/5 47/125/5
f 6/145/5 35/137/5 33/128/5
f 56/139/5 7/127/5 52/129/5
f 93/146/5 42/132/5 41/134/5
f 52/1/1 33/147/1 10/2/1
f 40/4/2 45/38/2 28/5/2
f 5/7/3 6/74/3 7/8/3
f 46/10/4 51/28/4 22/11/4
f 29/15/5 27/148/5 28/13/5
f 27/148/5 22/149/5 10/150/5
f 22/149/5 26/151/5 25/152/5
f 25/152/5 24/153/5 23/154/5
f 23/154/5 21/155/5 22/149/5
f 21/155/5 10/150/5 22/149/5
f 10/150/5 14/156/5 13/157/5
f 13/157/5 12/158/5 11/159/5
f 11/159/5 9/160/5 10/150/5
f 9/160/5 16/161/5 10/150/5
f 16/161/5 20/162/5 19/163/5
f 19/163/5 18/164/5 17/165/5
f 17/165/5 15/166/5 19/163/5
f 15/166/5 28/13/5 10/150/5
f 19/163/5 15/166/5 16/161/5
f 28/13/5 32/167/5 31/14/5
f 31/14/5 30/168/5 29/15/5
f 27/148/5 10/150/5 28/13/5
f 22/149/5 25/152/5 23/154/5
f 10/150/5 13/157/5 11/159/5
f 10/150/5 16/161/5 15/166/5
f 11/16/6 38/20/6 34/17/6
f 12/19/7 37/22/7 38/20/7
f 13/21/8 36/169/8 37/22/8
f 14/23/9 35/26/9 36/24/9
f 10/2/10 33/147/10 35/26/10
f 53/27/11 26/30/11 22/11/11
f 54/29/12 25/32/12 26/30/12
f 55/31/13 24/170/13 25/32/13
f 56/33/14 23/36/14 24/34/14
f 52/1/15 21/3/15 23/36/15
f 47/37/16 32/40/16 28/5/16
f 48/39/17 31/171/17 32/40/17
f 49/41/18 30/45/18 31/42/18
f 50/44/19 29/46/19 30/45/19
f 46/10/20 27/12/20 29/46/20
f 41/47/21 20/51/21 16/48/21
f 42/50/22 19/53/22 20/51/22
f 43/52/23 18/172/23 19/53/23
f 44/54/24 17/57/24 18/55/24
f 40/4/25 15/6/25 17/57/25
f 34/17/26 39/49/26 16/48/26
f 1/58/27 2/84/27 3/59/27
f 60/61/28 59/75/28 58/62/28
f 80/64/50 79/67/50 68/65/50
f 79/67/30 81/69/30 67/68/30
f 81/69/31 82/173/31 66/70/31
f 82/71/32 83/174/32 65/72/32
f 65/72/51 83/174/51 6/74/51
f 59/75/52 60/61/52 61/76/52
f 61/76/35 62/79/35 85/78/35
f 62/79/36 63/175/36 86/80/36
f 86/81/37 63/176/37 64/82/37
f 64/82/53 8/9/53 7/8/53
f 2/84/54 1/58/54 75/85/54
f 75/85/40 76/177/40 89/87/40
f 76/88/41 77/178/41 90/89/41
f 90/89/42 77/178/42 78/91/42
f 78/91/55 57/63/55 58/62/55
f 92/93/56 70/102/56 71/94/56
f 71/94/45 72/97/45 94/96/45
f 72/97/46 73/179/46 95/98/46
f 95/99/47 73/180/47 74/100/47
f 74/100/57 4/60/57 3/59/57
f 70/102/49 92/93/49 80/64/49
f 50/103/5 91/181/5 58/104/5
f 82/106/5 81/141/5 37/107/5
f 85/109/5 86/138/5 55/110/5
f 59/112/5 84/142/5 53/113/5
f 44/115/5 96/182/5 3/116/5
f 89/118/5 90/140/5 49/119/5
f 38/121/5 79/183/5 80/122/5
f 2/124/5 88/144/5 47/125/5
f 7/127/5 6/145/5 33/128/5
f 94/130/5 95/143/5 43/131/5
f 3/116/5 2/124/5 45/126/5
f 92/133/5 93/146/5 41/134/5
f 83/136/5 82/106/5 36/108/5
f 86/138/5 87/184/5 56/139/5
f 58/104/5 59/112/5 51/114/5
f 90/140/5 91/181/5 50/103/5
f 81/141/5 79/183/5 38/121/5
f 84/142/5 85/109/5 54/111/5
f 80/122/5 92/133/5 39/135/5
f 95/143/5 96/182/5 44/115/5
f 88/144/5 89/118/5 48/120/5
f 6/145/5 83/136/5 35/137/5
f 56/139/5 87/184/5 7/127/5
f 93/146/5 94/130/5 42/132/5
